<?xml version="1.0" standalone="no"?>
<!DOCTYPE svg PUBLIC "-//W3C//DTD SVG 20010904//EN"
 "http://www.w3.org/TR/2001/REC-SVG-20010904/DTD/svg10.dtd">
<svg version="1.0" xmlns="http://www.w3.org/2000/svg"
 width="512.000000pt" height="512.000000pt" viewBox="0 0 512.000000 512.000000"
 preserveAspectRatio="xMidYMid meet">

<g transform="translate(0.000000,512.000000) scale(0.100000,-0.100000)"
fill="#000000" stroke="none">
<path d="M1357 4549 c-636 -315 -1154 -576 -1150 -580 5 -4 211 -107 459 -229
l450 -221 1157 592 c636 326 1157 595 1157 598 0 3 -184 96 -408 205 -328 161
-417 200 -457 204 -49 3 -77 -10 -1208 -569z"/>
<path d="M2709 3897 c-951 -486 -1154 -594 -1140 -603 9 -6 236 -119 504 -252
l488 -240 697 345 c383 190 915 453 1182 585 l485 240 -524 259 c-288 143
-526 259 -530 259 -3 -1 -526 -267 -1162 -593z"/>
<path d="M0 2474 c0 -1105 1 -1161 19 -1199 10 -22 29 -50 42 -62 13 -11 535
-288 1159 -613 624 -326 1138 -594 1143 -597 4 -2 7 551 7 1230 l0 1233 -506
250 c-278 137 -510 251 -515 252 -5 2 -9 -138 -9 -339 0 -329 -1 -344 -21
-387 -51 -105 -198 -136 -286 -59 -73 64 -73 60 -73 547 l-1 435 -462 227
c-254 125 -470 230 -479 234 -17 6 -18 -53 -18 -1152z"/>
<path d="M3935 3050 l-1170 -578 -6 -449 c-3 -246 -7 -800 -8 -1230 -1 -621 2
-783 12 -782 6 0 539 276 1182 612 l1170 612 3 1198 c1 658 -1 1197 -5 1196
-5 0 -534 -261 -1178 -579z"/>
</g>
</svg>
