<?xml version="1.0" standalone="no"?>
<!DOCTYPE svg PUBLIC "-//W3C//DTD SVG 20010904//EN"
 "http://www.w3.org/TR/2001/REC-SVG-20010904/DTD/svg10.dtd">
<svg version="1.0" xmlns="http://www.w3.org/2000/svg"
 width="512.000000pt" height="512.000000pt" viewBox="0 0 512.000000 512.000000"
 preserveAspectRatio="xMidYMid meet">

<g transform="translate(0.000000,512.000000) scale(0.100000,-0.100000)"
fill="#000000" stroke="none">
<path d="M0 3060 l0 -940 1700 0 1700 0 0 940 0 940 -1700 0 -1700 0 0 -940z"/>
<path d="M3576 3298 c-14 -20 -16 -115 -16 -830 0 -795 0 -808 20 -828 18 -18
33 -20 149 -20 l129 0 25 43 c14 23 51 67 83 98 150 142 348 168 539 71 58
-29 165 -134 184 -180 l13 -32 189 0 c176 0 190 1 209 20 19 19 20 33 20 424
l0 404 -241 388 c-132 214 -251 400 -262 412 -48 53 -41 52 -551 52 l-475 0
-15 -22z m884 -116 c28 -14 61 -61 192 -277 87 -143 158 -267 158 -276 0 -9
-9 -24 -21 -35 -20 -18 -43 -19 -510 -19 -455 0 -489 1 -506 18 -16 16 -18 42
-18 291 0 255 1 275 19 295 19 21 27 21 335 21 281 0 320 -2 351 -18z m587
-1254 c20 -19 23 -31 23 -100 0 -85 -17 -118 -62 -118 -45 0 -58 26 -58 121 0
79 2 89 22 103 30 21 47 20 75 -6z"/>
<path d="M309 1972 c-128 -67 -146 -242 -35 -340 49 -43 66 -41 95 13 35 65
84 119 152 164 232 155 537 78 669 -170 l31 -59 1090 0 1089 0 0 210 0 210
-1519 0 -1519 0 -53 -28z"/>
<path d="M694 1810 c-109 -22 -215 -113 -254 -218 -60 -160 18 -354 175 -432
71 -35 188 -40 267 -10 236 88 302 386 125 564 -53 53 -102 79 -175 95 -59 12
-79 12 -138 1z m166 -121 c60 -27 88 -54 116 -114 110 -233 -169 -449 -368
-285 -75 62 -103 181 -63 278 20 48 93 118 139 131 54 16 128 12 176 -10z"/>
<path d="M4185 1806 c-69 -17 -110 -41 -160 -91 -168 -168 -119 -453 95 -554
47 -22 69 -26 150 -26 81 0 103 4 145 25 64 31 134 101 165 165 36 73 40 189
9 270 -58 156 -243 253 -404 211z m158 -107 c47 -13 112 -70 137 -120 59 -116
12 -260 -104 -322 -53 -27 -155 -29 -207 -4 -85 42 -138 125 -139 215 0 165
150 277 313 231z"/>
</g>
</svg>
