<?xml version="1.0" standalone="no"?>
<!DOCTYPE svg PUBLIC "-//W3C//DTD SVG 20010904//EN"
 "http://www.w3.org/TR/2001/REC-SVG-20010904/DTD/svg10.dtd">
<svg version="1.0" xmlns="http://www.w3.org/2000/svg"
 width="512.000000pt" height="512.000000pt" viewBox="0 0 512.000000 512.000000"
 preserveAspectRatio="xMidYMid meet">

<g transform="translate(0.000000,512.000000) scale(0.100000,-0.100000)"
fill="#000000" stroke="none">
<path d="M3213 4865 c-168 -46 -290 -175 -323 -342 -8 -40 -11 -119 -8 -225 4
-142 8 -171 30 -229 35 -95 71 -152 135 -215 65 -64 120 -98 210 -131 113 -41
103 -71 103 302 l0 326 25 24 24 25 296 0 295 0 0 43 c0 197 -153 384 -348
426 -76 16 -374 13 -439 -4z"/>
<path d="M3520 3990 l0 -250 28 6 c126 27 221 79 280 150 67 80 112 203 112
305 l0 39 -210 0 -210 0 0 -250z"/>
<path d="M2645 3906 c-191 -65 -425 -223 -589 -397 -205 -218 -406 -607 -406
-785 0 -70 20 -151 49 -200 12 -19 21 -37 21 -40 0 -2 -188 -4 -418 -4 -492 0
-494 0 -578 -85 -41 -41 -56 -65 -70 -110 -31 -109 3 -228 86 -296 l40 -34
-77 -52 c-236 -156 -402 -415 -448 -698 -23 -137 -20 -191 10 -220 22 -23 32
-25 118 -25 l94 0 8 -72 c16 -166 86 -310 209 -434 90 -90 175 -143 294 -182
67 -22 94 -26 212 -26 118 0 145 4 212 26 119 39 204 92 294 182 123 124 193
268 209 434 l8 72 756 0 757 0 11 -83 c24 -175 90 -307 215 -429 61 -61 98
-87 171 -123 124 -60 198 -78 327 -78 129 0 204 18 325 77 359 178 497 616
308 977 -94 180 -288 326 -488 366 -44 8 -82 17 -84 19 -2 2 -54 180 -116 396
l-112 393 -276 3 -276 2 -3 -407 -3 -408 -32 -67 c-44 -93 -100 -151 -191
-196 l-76 -37 -248 -3 -248 -4 0 104 c0 57 -7 135 -15 173 -19 90 -73 199
-124 250 -22 22 -40 43 -41 47 0 4 17 16 38 27 106 55 168 207 129 319 l-15
42 62 0 61 0 85 -397 85 -398 80 -3 c112 -4 159 11 220 72 68 68 75 97 75 304
l0 172 -60 280 c-33 155 -69 298 -80 319 -25 50 -89 105 -139 119 -21 7 -95
12 -165 12 -69 0 -126 2 -126 5 0 8 80 149 157 278 l65 108 77 -73 76 -74 178
-34 177 -34 0 -168 0 -168 338 0 c394 0 405 2 475 80 24 26 49 66 55 88 17 55
16 570 0 626 -16 55 -99 138 -154 154 -29 8 -138 12 -353 12 l-312 0 -24 -25
c-18 -17 -25 -35 -25 -64 l0 -39 -67 15 c-67 15 -70 17 -163 114 -143 148
-280 269 -330 291 -58 26 -181 33 -235 14z m-1264 -2418 c150 -55 254 -147
319 -283 232 -478 -267 -977 -746 -745 -138 67 -237 182 -290 340 -26 76 -26
244 0 320 59 176 175 300 339 362 81 31 125 37 222 33 63 -2 110 -11 156 -27z
m2960 0 c150 -55 254 -147 319 -283 232 -478 -267 -977 -746 -745 -138 67
-237 182 -290 340 -14 40 -19 84 -19 160 0 158 50 282 156 390 80 81 180 136
294 161 70 15 213 3 286 -23z"/>
<path d="M1125 1271 c-92 -24 -173 -90 -215 -176 -34 -69 -35 -198 -2 -265 34
-71 75 -114 144 -151 58 -31 70 -34 148 -33 72 0 93 4 136 26 75 40 107 70
145 140 31 58 34 70 34 148 0 78 -3 90 -34 148 -57 104 -144 160 -260 167 -36
2 -79 1 -96 -4z"/>
<path d="M4085 1271 c-92 -24 -173 -90 -215 -176 -34 -69 -35 -198 -2 -265 34
-71 75 -114 144 -151 58 -31 70 -34 148 -33 72 0 93 4 136 26 75 40 107 70
145 140 31 58 34 70 34 148 0 78 -3 90 -34 148 -57 104 -144 160 -260 167 -36
2 -79 1 -96 -4z"/>
<path d="M265 3575 l-25 -24 0 -456 0 -455 640 0 640 0 0 455 0 456 -25 24
-24 25 -591 0 -591 0 -24 -25z"/>
</g>
</svg>
