<svg version="1.1" id="Layer_1" xmlns="http://www.w3.org/2000/svg" xmlns:xlink="http://www.w3.org/1999/xlink" x="0px" y="0px"
	 width="100%" viewBox="0 0 662 678" enable-background="new 0 0 662 678" xml:space="preserve">
<path fill="#C33D4C" opacity="1.000000" stroke="none" 
	d="
M662.760620,669.761230 
	C663.000000,672.999390 664.170227,677.166870 662.670532,678.669312 
	C661.173645,680.169006 657.002441,678.999939 654.003662,678.999939 
	C437.881073,679.000000 221.758469,678.982666 5.635987,679.125183 
	C1.340366,679.128052 0.903425,677.955933 0.905244,674.137756 
	C1.011361,451.349915 1.013486,228.562042 0.892523,5.774212 
	C0.890350,1.772907 1.616552,0.883293 5.723977,0.885734 
	C223.346176,1.015052 440.968475,1.013537 658.590698,0.893252 
	C662.542236,0.891068 663.098328,2.005986 663.086609,5.589205 
	C662.951050,47.080017 663.000000,88.571426 663.000000,130.531342 
	C661.434021,132.212204 661.073853,133.968781 660.793518,136.219147 
	C660.398376,140.479813 660.504395,144.314438 660.504272,148.145462 
	C660.499023,316.933105 660.505127,485.720734 660.458984,654.508362 
	C660.458191,657.420349 661.330017,660.538696 658.855225,663.479492 
	C657.757996,663.939819 657.086609,663.971069 655.944702,663.627319 
	C653.720459,661.958923 653.795715,659.872375 653.674438,657.902466 
	C653.449158,654.242676 653.548950,650.573608 653.548889,646.908386 
	C653.545837,480.789795 653.547180,314.671204 653.532776,148.552597 
	C653.532471,145.232056 653.861389,141.881668 652.813721,138.155579 
	C650.981567,134.118042 647.928345,133.474548 644.348999,133.484146 
	C630.183044,133.522186 616.016663,133.538498 601.850647,133.485641 
	C595.064087,133.460312 594.009094,132.390274 594.006470,125.628334 
	C593.992126,88.796272 594.004822,51.964211 593.996521,15.132148 
	C593.994690,6.956071 593.030762,5.996720 584.774963,6.001786 
	C506.291718,6.049935 427.808380,5.895725 349.325195,6.082179 
	C342.165222,6.099189 341.648468,6.428679 341.602570,13.465131 
	C341.368744,49.296505 341.564880,85.128761 341.465088,120.960480 
	C341.458374,123.369980 342.214264,126.016937 339.693604,128.246674 
	C335.940033,127.768585 337.060059,125.081779 337.051788,123.178383 
	C336.966461,103.528671 337.000671,83.878464 337.000061,64.228394 
	C336.999603,49.407578 337.000000,34.586761 337.000061,19.765947 
	C336.999390,53.883759 337.005676,88.001572 336.995361,122.119385 
	C336.993256,129.065598 336.592468,129.481964 329.648590,129.490570 
	C310.165070,129.514679 290.681488,129.516159 271.197968,129.489746 
	C264.326843,129.480423 264.004822,129.122147 264.003296,122.001633 
	C263.995911,87.530746 264.000427,53.059860 264.000000,18.588976 
	C263.999695,52.708900 264.013824,86.828835 263.966949,120.948700 
	C263.964081,123.030197 264.669861,125.319435 262.453796,127.277161 
	C258.743683,126.708290 259.426788,123.894417 259.448700,121.890030 
	C259.549805,112.635895 259.476990,103.382523 259.490845,94.129288 
	C259.530487,67.639992 259.481537,41.150635 259.514038,14.661293 
	C259.522736,7.572938 258.097656,6.040154 251.118683,6.027707 
	C172.223526,5.887008 93.328125,6.160114 14.432782,5.922956 
	C9.307079,5.907549 5.956243,6.800258 5.962558,14.688593 
	C6.025409,93.196693 5.993936,171.704880 6.008692,250.213028 
	C6.009977,257.054932 7.752441,258.919586 14.553231,258.949341 
	C47.783596,259.094727 81.014427,258.950378 114.245018,258.970306 
	C116.379082,258.971588 118.192986,258.677368 119.269104,261.422607 
	C117.735870,264.700043 115.004372,263.972656 112.608856,263.975555 
	C81.793312,264.012939 50.977707,263.999573 20.162115,264.000000 
	C50.221901,264.000519 80.281685,263.993958 110.341469,264.004547 
	C117.041191,264.006927 117.477257,264.414581 117.488304,271.036743 
	C117.518860,289.359497 117.514725,307.682343 117.490562,326.005096 
	C117.481606,332.797516 116.817184,333.482178 110.096375,333.488464 
	C80.113655,333.516571 50.130852,333.471954 20.148279,333.545929 
	C17.761826,333.551819 15.101508,332.738892 12.793558,335.232544 
	C12.358107,335.856842 12.188333,336.111847 11.690771,336.694153 
	C10.867227,337.408905 10.332323,337.731628 9.308951,338.130981 
	C6.644845,338.707001 5.928484,340.245392 5.977315,342.281891 
	C6.036233,344.739044 6.001361,347.195801 6.002035,349.652344 
	C6.023217,426.953888 5.938619,504.255432 6.050920,581.556946 
	C6.061367,588.748413 6.781401,589.485901 13.980915,589.495300 
	C47.039963,589.538696 80.099091,589.437500 113.158134,589.548523 
	C121.364311,589.576050 121.497009,589.679382 121.498718,597.607361 
	C121.503212,618.433289 121.478668,639.259338 121.530457,660.085144 
	C121.535866,662.260254 120.692589,664.988098 124.485466,665.891296 
	C125.870804,666.271423 126.647224,666.788513 127.674492,667.738281 
	C128.174622,668.267029 128.337463,668.504883 128.598663,669.153076 
	C128.584732,671.600342 127.200554,671.978882 125.365959,671.992126 
	C125.249977,671.997986 125.425621,671.997925 126.126495,671.986389 
	C129.492584,671.436951 132.487411,671.495605 135.482712,671.495728 
	C304.489899,671.500610 473.497101,671.500427 642.504272,671.498291 
	C645.334778,671.498230 648.165588,671.531433 651.393066,671.426514 
	C652.021545,671.300171 652.252869,671.213867 652.743408,670.890625 
	C653.227295,670.248840 653.427734,669.832336 653.761963,669.095337 
	C654.797607,667.666748 655.778687,666.661499 657.419067,665.917725 
	C658.261230,665.833557 658.733643,665.911499 659.492249,666.268677 
	C660.734436,667.448242 661.505920,668.593628 662.760620,669.761230 
z"/>
<path fill="#C13747" opacity="1.000000" stroke="none" 
	d="
M663.000000,669.531372 
	C661.618164,669.936584 660.186279,670.006042 659.152405,668.306396 
	C659.875427,664.605103 660.004272,661.136353 660.004211,657.648621 
	C659.999634,485.353271 660.001160,313.057922 659.987000,140.762573 
	C659.986877,138.777939 660.267212,136.757446 659.272949,134.407669 
	C659.152344,131.973740 660.306641,131.055573 662.635376,131.015839 
	C663.000000,310.354218 663.000000,489.708466 663.000000,669.531372 
z"/>
<path fill="#FBF4F5" opacity="1.000000" stroke="none" 
	d="
M656.230469,136.523621 
	C656.421814,139.150742 656.484070,141.315659 656.484192,143.480591 
	C656.492676,316.238800 656.496338,488.997040 656.497192,662.201050 
	C658.087524,666.405579 656.068542,668.264404 652.848083,669.344604 
	C651.443909,669.815491 649.935425,669.982605 647.995850,670.374268 
	C646.180115,670.506531 644.847595,670.498169 643.515442,670.498108 
	C473.653168,670.494507 303.790894,670.513062 133.459015,670.480225 
	C131.404526,670.535706 130.042465,669.973083 128.447540,668.767212 
	C127.376724,668.529541 126.686989,668.517700 125.654869,668.461914 
	C121.627014,667.821716 121.539520,665.209778 121.522263,662.214233 
	C121.396919,640.463684 121.645401,618.712646 121.416832,596.962402 
	C121.345093,590.135864 120.689552,589.399414 113.871429,589.438721 
	C80.602753,589.630615 47.333549,589.364380 14.064878,589.570435 
	C6.955843,589.614441 6.009940,588.652649 6.006691,581.548645 
	C5.970361,502.137085 6.044721,422.725525 5.992573,343.313965 
	C5.991046,340.989319 5.424817,338.256042 8.870113,336.808105 
	C9.723733,336.577820 10.109934,336.518066 10.789404,336.454407 
	C12.586559,335.602966 14.072192,334.709259 16.308849,334.543579 
	C46.232983,334.469147 75.702095,334.520782 105.171173,334.492157 
	C108.163300,334.489227 111.169083,334.657288 114.587196,333.913025 
	C115.925316,333.434601 116.786415,333.022034 118.176407,332.696960 
	C120.731956,331.667969 121.526016,330.134247 121.521698,327.835693 
	C121.482597,307.003143 121.567169,286.170105 121.448296,265.338013 
	C121.417168,259.884186 119.644859,258.812805 113.989983,258.904877 
	C98.659821,259.154633 83.325600,258.984741 67.993019,258.996155 
	C50.493702,259.009155 32.994347,259.018127 15.495046,258.989594 
	C7.609749,258.976746 6.007403,257.417145 6.006281,249.766922 
	C5.994814,171.603210 5.998325,93.439507 6.004323,15.275804 
	C6.004910,7.623722 7.638703,6.003534 15.460646,6.003177 
	C93.790367,5.999598 172.120087,5.995399 250.449814,6.004693 
	C258.227936,6.005616 259.513000,7.359864 259.507782,15.302382 
	C259.484039,51.386967 259.515900,87.471558 259.495331,123.556152 
	C259.494385,125.206459 259.431396,126.860237 259.709564,128.505249 
	C260.091553,130.763870 261.261200,132.056900 263.664276,132.214737 
	C265.994385,132.367783 268.322571,132.485596 270.655945,132.487488 
	C291.321960,132.504227 311.987976,132.529053 332.653931,132.476181 
	C340.474579,132.456161 340.984406,131.937180 340.990509,123.809029 
	C341.013824,92.810013 340.998444,61.810970 341.000549,30.811937 
	C341.000946,24.812130 340.922180,18.811104 341.028107,12.812875 
	C341.123138,7.431116 342.548798,6.020874 347.904144,6.018803 
	C427.375671,5.988066 506.847198,5.993207 586.318726,6.015637 
	C592.730774,6.017447 593.825867,7.266074 593.882690,14.097004 
	C594.191711,51.241951 593.839355,88.387985 594.066345,125.533020 
	C594.107788,132.316391 594.783875,132.984619 601.588989,132.993561 
	C617.755127,133.014832 633.921326,132.991608 650.087463,133.006989 
	C652.587830,133.009354 655.279541,132.689499 656.230469,136.523621 
z"/>
<path fill="#E19FA6" opacity="1.000000" stroke="none" 
	d="
M656.588013,136.693924 
	C654.570618,134.729782 652.235718,134.109970 649.354614,134.131287 
	C633.190613,134.250854 617.025330,134.226089 600.860535,134.190292 
	C593.310120,134.173584 592.192688,133.007492 592.191956,125.460144 
	C592.188599,88.797623 592.195679,52.135109 592.204651,15.472591 
	C592.206421,8.365920 591.920715,8.064195 584.984070,8.064348 
	C507.159515,8.066068 429.334991,8.066736 351.510437,8.067605 
	C350.677185,8.067615 349.843719,8.053049 349.010742,8.068096 
	C342.876373,8.178906 342.029663,8.992628 342.012207,14.993173 
	C341.989410,22.825541 342.014282,30.658043 342.015228,38.490486 
	C342.018829,67.653854 342.024231,96.817223 342.021515,125.980591 
	C342.020813,133.395660 341.179535,134.202179 333.625214,134.201843 
	C311.127777,134.200851 288.630310,134.211868 266.132874,134.200638 
	C258.518158,134.196823 257.573395,132.727737 257.658844,125.024452 
	C257.897339,103.529800 257.795776,82.031311 257.816040,60.534325 
	C257.830322,45.369385 257.840698,30.204407 257.819153,15.039492 
	C257.810669,9.075605 256.813934,8.066294 250.828079,8.065422 
	C172.170319,8.053972 93.512550,8.055120 14.854794,8.070130 
	C8.784617,8.071289 7.918971,8.963271 7.918247,15.059485 
	C7.908941,93.383949 7.908262,171.708420 7.918725,250.032883 
	C7.919527,256.038940 8.821002,256.927979 14.947175,256.930145 
	C47.943432,256.941742 80.939705,256.923645 113.935966,256.922638 
	C121.083733,256.922424 123.002106,258.659668 123.020088,265.587311 
	C123.076332,287.251373 123.061699,308.915710 123.024208,330.579865 
	C123.019714,333.178558 123.418282,336.188477 119.263290,336.476013 
	C117.985115,334.673309 117.558502,332.920013 117.964462,330.548889 
	C119.020485,316.610443 118.322372,303.114838 118.474266,289.628754 
	C118.558670,282.134918 118.637184,274.636536 118.329041,266.676392 
	C118.239227,264.993408 117.970673,263.749969 119.040710,262.282990 
	C118.534348,260.205750 117.039719,260.332703 115.492775,260.337067 
	C82.503883,260.430603 49.514935,260.505371 16.525957,260.562256 
	C5.536410,260.581207 4.320142,259.314758 4.320221,248.155273 
	C4.320771,170.842102 4.320063,93.528931 4.320401,16.215765 
	C4.320446,5.826271 5.698406,4.436323 16.155205,4.435503 
	C93.968239,4.429407 171.781281,4.429546 249.594315,4.434090 
	C259.710327,4.434680 260.769897,5.509271 260.769226,15.555005 
	C260.766937,50.379253 260.762238,85.203506 260.777222,120.027748 
	C260.778137,122.188148 260.940216,124.348473 261.187805,126.909607 
	C263.381592,127.572670 264.803986,129.188904 267.107361,129.837250 
	C271.780518,130.830032 276.114899,130.472992 280.425262,130.483353 
	C295.545013,130.519669 310.664948,130.516251 325.784790,130.486801 
	C328.278687,130.481934 330.771210,130.425766 333.634277,129.746948 
	C335.543549,128.917145 337.272430,129.119492 339.168976,128.353287 
	C339.698486,126.118896 339.952179,123.967468 339.953491,121.815903 
	C339.975586,86.001251 339.964508,50.186577 339.964661,14.371907 
	C339.964691,5.155556 340.676666,4.434958 349.923981,4.434411 
	C428.216522,4.429780 506.509033,4.430437 584.801575,4.432704 
	C593.946045,4.432969 595.697632,6.143742 595.698303,15.141365 
	C595.700928,51.788921 595.693909,88.436478 595.681824,125.084038 
	C595.679688,131.673203 596.037354,132.052231 602.829590,132.052811 
	C618.987854,132.054169 635.146057,132.034775 651.304321,132.044815 
	C654.246033,132.046631 657.304932,132.001053 656.588013,136.693924 
z"/>
<path fill="#E19FA6" opacity="1.000000" stroke="none" 
	d="
M8.960537,336.477875 
	C8.101104,338.517792 7.863739,340.571014 7.865164,342.807281 
	C7.915544,421.924896 7.916769,501.042572 7.917681,580.160217 
	C7.917770,587.962585 8.004889,588.064453 15.610912,588.062500 
	C48.423927,588.054138 81.236946,588.048767 114.049957,588.049622 
	C121.895950,588.049866 123.017235,589.121399 123.026886,596.992798 
	C123.053223,618.479492 123.031570,639.966187 123.013092,661.452881 
	C123.011093,663.778687 122.628372,666.188110 125.125839,668.107849 
	C120.356468,669.762085 120.149109,666.526306 120.150421,663.074646 
	C120.158401,642.090881 120.162918,621.107178 120.169151,600.123413 
	C120.169403,599.290710 120.185013,598.458008 120.177124,597.625366 
	C120.117134,591.289551 119.549812,590.721497 113.385361,590.722961 
	C81.576668,590.730591 49.767975,590.734680 17.959284,590.738831 
	C15.960867,590.739075 13.959416,590.798645 11.964602,590.711243 
	C5.977472,590.449158 4.327274,588.766785 4.324550,582.782532 
	C4.308558,547.643066 4.321321,512.503601 4.320790,477.364136 
	C4.320114,432.565491 4.304977,387.766846 4.338033,342.968231 
	C4.340252,339.960144 3.413638,336.129089 8.960537,336.477875 
z"/>
<path fill="#BE2C3D" opacity="1.000000" stroke="none" 
	d="
M654.544678,669.463135 
	C655.175659,669.980652 655.385010,670.292908 655.798340,670.801331 
	C656.378052,671.384338 656.514771,671.842346 656.207764,672.688721 
	C478.979980,673.011414 301.957062,673.017090 124.469513,673.026001 
	C122.952232,673.181763 122.640984,672.556091 122.785767,671.331787 
	C124.530472,670.935303 126.118767,671.187500 127.791351,669.993164 
	C128.939056,669.221069 129.847870,669.132446 131.257874,669.617432 
	C133.532883,670.127136 135.371796,669.993652 137.201141,669.993713 
	C305.357269,670.000732 473.513428,670.000305 641.669556,669.997253 
	C643.335266,669.997192 645.003235,670.053345 647.132568,669.760620 
	C649.731506,668.782288 651.920349,668.901550 654.544678,669.463135 
z"/>
<path fill="#BE2C3D" opacity="1.000000" stroke="none" 
	d="
M658.997498,134.464844 
	C660.590332,134.743469 660.958740,136.138672 660.969482,137.723511 
	C660.979614,139.222763 661.000122,140.722015 661.000122,142.221268 
	C661.001587,314.817688 661.006104,487.414124 660.958984,660.010559 
	C660.958313,662.561401 661.901917,665.393005 659.326904,667.805542 
	C658.714478,667.755188 658.431396,667.505920 657.906677,667.109131 
	C657.030823,665.959106 656.973206,664.897461 657.538086,663.429321 
	C659.668701,660.558777 658.964111,657.617981 658.964600,654.849243 
	C658.997437,481.544159 658.995850,308.239044 658.997498,134.464844 
z"/>
<path fill="#BF3040" opacity="1.000000" stroke="none" 
	d="
M265.423523,131.483765 
	C262.223480,132.050659 261.169098,130.631149 261.280701,127.687500 
	C263.551910,125.151985 262.975555,122.360748 262.977661,119.752960 
	C263.005585,85.283562 262.996399,50.814129 262.996490,16.344704 
	C262.996490,14.392125 262.996490,12.439547 262.996490,9.424910 
	C265.695374,11.800174 264.963348,13.889220 264.966034,15.633749 
	C265.019623,50.436131 265.001953,85.238617 265.009857,120.041077 
	C265.011597,127.743881 265.241180,127.978699 272.784058,127.983719 
	C291.267670,127.996033 309.751251,127.996193 328.234863,127.983627 
	C335.757751,127.978508 335.981720,127.746506 335.983368,120.018333 
	C335.990845,84.716316 335.975250,49.414280 336.019897,14.112318 
	C336.022278,12.227914 335.387360,10.169409 337.047424,8.104342 
	C338.497925,10.010302 337.980042,12.030827 337.981873,13.861097 
	C338.017700,49.496120 338.001434,85.131195 338.025635,120.766235 
	C338.027191,123.063560 337.597260,125.456902 339.272064,127.922653 
	C339.677277,130.113144 339.018372,131.376343 336.633545,131.617920 
	C334.982147,131.017670 333.647522,131.006241 332.311829,131.005966 
	C310.985413,131.001587 289.659027,130.985153 268.332611,131.014359 
	C267.497772,131.015503 266.667877,131.067001 265.423523,131.483765 
z"/>
<path fill="#BF3040" opacity="1.000000" stroke="none" 
	d="
M119.551239,330.590820 
	C120.336365,332.610352 120.116760,334.121582 119.103371,335.929474 
	C118.223228,336.279449 117.461395,336.251648 116.351921,336.065094 
	C114.717682,334.907928 113.194763,335.007965 111.705582,335.009796 
	C79.971001,335.048706 48.236248,334.888580 16.039913,335.186035 
	C14.400135,335.754303 13.206244,336.084198 11.511812,335.502167 
	C9.811759,334.600372 8.530651,333.901611 6.935986,333.031799 
	C9.021612,331.379822 11.244918,332.014404 13.263831,332.011688 
	C45.073154,331.968536 76.882568,331.989258 108.691940,331.974304 
	C115.614120,331.971069 115.978294,331.592224 115.984894,324.557709 
	C116.001450,306.904327 116.011757,289.250916 115.976532,271.597595 
	C115.964569,265.602173 115.386536,265.023590 109.352707,265.018524 
	C78.376045,264.992523 47.399353,265.014465 16.422707,264.983307 
	C14.467484,264.981354 12.434651,265.409729 10.156431,264.247040 
	C11.783491,262.294800 13.862704,263.043762 15.568426,263.040375 
	C44.713039,262.982697 73.857819,262.979706 103.002495,263.016724 
	C108.169205,263.023285 113.320152,263.025726 118.866104,261.960876 
	C119.523026,262.737640 119.725266,263.552155 119.862259,264.682312 
	C118.992622,266.167450 119.009369,267.508392 119.009232,268.840179 
	C119.007217,288.631317 118.968864,308.422485 119.028389,328.213623 
	C119.030396,328.882141 119.137054,329.537567 119.551239,330.590820 
z"/>
<path fill="#BF3040" opacity="1.000000" stroke="none" 
	d="
M115.990997,604.182373 
	C116.438782,600.848572 115.041924,597.901428 116.187729,594.815125 
	C118.352272,597.711426 118.932831,660.966125 115.991112,666.538452 
	C115.991112,645.910034 115.991112,625.281677 115.990997,604.182373 
z"/>
<path fill="#E19FA6" opacity="1.000000" stroke="none" 
	d="
M657.531128,662.981445 
	C657.690186,664.105286 657.643982,665.144226 657.631409,666.572388 
	C656.890747,667.731323 656.116516,668.501038 655.154297,669.469604 
	C652.973328,669.653564 650.980225,669.638733 648.564575,669.686035 
	C647.856812,669.576538 647.571777,669.404968 647.640625,668.881592 
	C650.749756,666.900635 656.221252,669.559875 656.298462,663.020386 
	C656.809387,662.603455 657.086609,662.686646 657.531128,662.981445 
z"/>
<path fill="#C13747" opacity="1.000000" stroke="none" 
	d="
M122.704262,670.886963 
	C123.214005,671.520020 123.434471,672.046265 123.829895,672.800903 
	C123.355202,674.528748 122.298828,674.971069 120.821884,674.214966 
	C119.855736,673.720520 119.215599,672.939331 119.569572,671.827393 
	C120.035767,670.362976 121.205956,670.429504 122.704262,670.886963 
z"/>
<path fill="#E19FA6" opacity="1.000000" stroke="none" 
	d="
M11.062194,335.586761 
	C12.091722,335.334412 13.090573,335.369659 14.460293,335.341858 
	C15.117495,335.438812 15.403830,335.598846 15.347866,336.112244 
	C13.938425,337.382233 12.749744,337.201508 11.312370,336.649902 
	C11.065620,336.258484 11.048569,336.066406 11.062194,335.586761 
z"/>
<path fill="#E19FA6" opacity="1.000000" stroke="none" 
	d="
M131.283325,669.491394 
	C130.160278,669.707581 129.462494,669.667175 128.418777,669.683044 
	C128.054718,669.539673 128.036621,669.340088 128.042480,668.840942 
	C128.809036,667.739319 129.692886,667.846069 130.806671,668.339294 
	C131.240555,668.766357 131.474594,669.000610 131.283325,669.491394 
z"/>
<path fill="#C13747" opacity="1.000000" stroke="none" 
	d="
M656.209229,673.101807 
	C656.002502,672.559509 656.002136,672.113220 656.002075,671.332275 
	C656.730164,671.620239 659.029541,671.947876 656.209229,673.101807 
z"/>
<path fill="#C33D4D" opacity="1.000000" stroke="none" 
	d="
M259.480225,235.999222 
	C259.474060,209.836060 259.466675,184.172745 259.464142,158.509415 
	C259.463501,151.695221 260.482666,150.695618 267.248444,150.697632 
	C289.412170,150.704193 311.575928,150.706573 333.739655,150.691849 
	C339.992859,150.687683 340.896301,151.526413 340.897614,157.924057 
	C340.903931,188.586731 340.890991,219.249405 340.871399,249.912079 
	C340.866150,258.134338 341.400116,258.722168 349.659637,258.723511 
	C428.649384,258.736359 507.639160,258.739716 586.628906,258.740448 
	C592.495789,258.740509 593.791321,257.423950 593.793152,251.235565 
	C593.802002,220.572906 593.780701,189.910233 593.765686,159.247574 
	C593.762146,152.073334 595.067993,150.714127 602.147034,150.702515 
	C611.979065,150.686371 621.811279,150.660797 631.643005,150.718521 
	C638.295044,150.757568 639.596619,152.099731 639.596497,158.564819 
	C639.594604,319.877258 639.591553,481.189697 639.588745,642.502136 
	C639.588623,651.183411 639.053833,651.696533 630.133362,651.696289 
	C470.653992,651.692444 311.174622,651.690552 151.695251,651.688293 
	C150.862030,651.688293 150.028778,651.686646 149.195587,651.692810 
	C139.061661,651.767761 138.756744,651.457642 138.762665,641.485229 
	C138.771362,626.820496 138.730484,612.155640 138.770554,597.491028 
	C138.790497,590.193909 139.913589,589.259827 147.233917,589.269958 
	C182.062637,589.318115 216.891464,589.328979 251.720200,589.306519 
	C258.591309,589.302063 259.499939,588.268066 259.499298,581.523193 
	C259.491913,502.366791 259.489075,423.210358 259.500366,344.053955 
	C259.501373,337.009430 259.018951,336.421814 251.880371,336.419312 
	C216.884918,336.407135 181.889450,336.420135 146.893997,336.437500 
	C138.944016,336.441437 138.746002,336.220520 138.755432,328.381134 
	C138.780060,307.883850 138.757126,287.386475 138.753326,266.889160 
	C138.752014,259.866608 139.928680,258.689148 146.819183,258.692749 
	C181.481323,258.710968 216.143478,258.723816 250.805618,258.727203 
	C258.259308,258.727936 259.512573,257.443512 259.495605,249.995117 
	C259.485382,245.496445 259.485352,240.997742 259.480225,235.999222 
z"/>
<path fill="#EDC6CA" opacity="1.000000" stroke="none" 
	d="
M213.000000,20.034472 
	C219.830902,20.034046 226.161804,20.033157 232.492706,20.033110 
	C242.053970,20.033037 243.954941,21.882458 243.958527,31.334898 
	C243.969986,61.489967 243.961731,91.645050 243.961273,121.800125 
	C243.961243,123.466148 243.983536,125.132469 243.959991,126.798149 
	C243.869141,133.227249 242.088120,135.039124 235.516876,135.044052 
	C201.529968,135.069565 167.543030,135.052887 133.556091,135.051788 
	C132.223328,135.051743 130.890396,135.076935 129.557846,135.061874 
	C125.835304,135.019775 124.029678,136.886078 124.026276,140.572205 
	C124.025047,141.904922 124.008995,143.237656 124.009003,144.570374 
	C124.009193,174.225647 124.015526,203.880905 124.008705,233.536179 
	C124.006874,241.501541 122.531662,243.046219 114.822495,243.050568 
	C86.500061,243.066574 58.177593,243.070206 29.855169,243.048538 
	C22.668564,243.043045 20.989477,241.364182 20.988239,234.213791 
	C20.976431,166.073318 20.973923,97.932846 20.990839,29.792372 
	C20.992895,21.510744 22.571581,20.033150 31.069950,20.032917 
	C91.546631,20.031267 152.023315,20.033434 213.000000,20.034472 
z"/>
<path fill="#C03243" opacity="1.000000" stroke="none" 
	d="
M576.059021,25.586752 
	C576.270630,61.014141 576.225891,96.069595 576.004883,131.484512 
	C574.317017,133.258026 572.417297,132.986298 570.611084,132.986603 
	C502.325043,132.998215 434.039032,133.013748 365.752991,132.987396 
	C365.086182,132.987137 364.421753,132.939331 363.285278,132.705597 
	C360.963409,131.046112 360.515656,129.001862 360.514893,126.750946 
	C360.503510,93.810143 360.457184,60.869331 360.543945,27.928556 
	C360.546143,27.092657 360.665710,26.270935 361.177979,25.047493 
	C363.069458,23.216267 364.965790,23.651306 366.903107,23.641781 
	C434.502808,23.309458 502.102509,23.535418 570.175049,23.562328 
	C571.912537,23.518143 573.084778,23.913752 574.676514,24.485144 
	C575.333374,24.837135 575.567993,25.025974 576.059021,25.586752 
z"/>
<path fill="#CD5D6A" opacity="1.000000" stroke="none" 
	d="
M369.096497,150.024353 
	C436.575958,150.014038 503.569550,150.038284 570.562927,149.913757 
	C575.202148,149.905136 576.876221,151.754990 576.871948,156.073456 
	C576.845276,182.737503 576.828491,209.401718 576.909363,236.065567 
	C576.921753,240.164124 575.204285,241.621002 571.180054,241.616821 
	C502.520081,241.545654 433.859955,241.567383 365.199890,241.536652 
	C358.422485,241.533615 357.305939,240.325272 357.307678,233.739365 
	C357.314148,209.575012 357.324646,185.410645 357.316010,161.246292 
	C357.312195,150.475510 357.797943,149.973785 369.096497,150.024353 
z"/>
<path fill="#EDC6CA" opacity="1.000000" stroke="none" 
	d="
M118.812668,353.095703 
	C122.168457,351.575653 123.326393,353.576294 123.772781,356.068298 
	C124.121208,358.013397 124.003174,360.051422 124.003456,362.048157 
	C124.012955,429.692017 124.012459,497.335876 124.011269,564.979736 
	C124.011131,572.808472 123.050346,573.838074 115.052879,573.848877 
	C86.729149,573.887085 58.405308,573.885315 30.081568,573.850525 
	C21.874517,573.840454 20.982349,572.858948 20.982414,564.619934 
	C20.982946,496.642853 20.961838,428.665771 21.047993,360.688812 
	C21.052168,357.393921 19.572824,352.811310 25.709629,352.496643 
	C25.970898,357.417603 25.470083,362.171021 25.473110,366.956726 
	C25.512909,429.855072 25.504505,492.753479 25.489532,555.651855 
	C25.488579,559.658630 25.408644,563.648804 27.852276,567.657837 
	C29.230938,570.103882 31.292223,570.064453 33.168690,570.058533 
	C59.450676,569.975891 85.732338,569.924072 112.014435,570.070129 
	C113.543289,570.078674 115.340187,570.213318 116.771866,568.294800 
	C119.566040,563.880310 119.518295,559.396118 119.516510,554.874573 
	C119.491783,492.400055 119.502319,429.925568 119.496567,367.451050 
	C119.496140,362.797852 119.555595,358.138855 118.812668,353.095703 
z"/>
<path fill="#D9848E" opacity="1.000000" stroke="none" 
	d="
M240.353180,572.703369 
	C206.714386,572.876038 173.515427,572.817078 139.875946,572.720093 
	C136.656265,571.487854 137.009705,569.009155 137.006653,566.698425 
	C136.991745,555.383606 137.000229,544.068848 137.000198,532.754028 
	C137.000046,475.348022 136.991852,417.942017 137.025375,360.536011 
	C137.026871,357.974060 136.239807,355.086151 139.501877,353.047272 
	C140.682846,352.697021 141.418549,352.564911 142.515656,352.336029 
	C148.859604,351.721252 154.854340,352.028351 160.842255,352.017975 
	C185.313004,351.975708 209.783890,351.983917 234.254684,352.009827 
	C241.799164,352.017822 242.996399,353.226379 242.996948,360.611328 
	C243.002060,428.863281 243.009552,497.115234 242.962967,565.367188 
	C242.961258,567.874146 243.963638,570.859863 240.353180,572.703369 
z"/>
<path fill="#DB8A93" opacity="1.000000" stroke="none" 
	d="
M362.694977,131.344620 
	C364.742401,131.687881 366.405212,131.805649 368.068115,131.806442 
	C436.352783,131.838669 504.637451,131.860703 572.922119,131.878571 
	C573.587036,131.878754 574.252014,131.805984 575.372803,131.805618 
	C574.815735,135.099777 572.050964,133.992050 569.953918,133.998199 
	C546.008240,134.068481 522.062317,134.031738 498.116425,134.032364 
	C452.719025,134.033554 407.321655,134.040451 361.454834,134.055466 
	C360.420746,134.016037 359.883087,133.877121 359.141174,133.458649 
	C356.657288,131.733459 356.830170,129.361481 356.831116,127.020943 
	C356.844849,93.314316 356.848419,59.607693 356.855286,25.429901 
	C358.397675,21.113071 361.607483,20.965099 365.113556,20.968184 
	C416.852386,21.013712 468.591217,21.000410 520.330078,21.000044 
	C536.633606,20.999929 552.937195,20.989311 569.240723,21.013672 
	C571.222717,21.016636 573.239685,20.735735 575.588379,21.721949 
	C576.514465,23.106926 577.054993,24.211853 576.511963,25.727386 
	C576.105835,25.986303 575.896240,26.013914 575.371704,26.003433 
	C574.333862,25.405460 573.484436,25.153826 572.281372,24.905809 
	C503.788239,24.853985 435.624237,24.857925 367.460266,24.866625 
	C365.961365,24.866816 364.462494,24.921364 362.502441,25.025639 
	C360.706573,26.841251 361.012482,28.890585 361.011475,30.857809 
	C360.995026,62.394451 360.991333,93.931114 361.020081,125.467743 
	C361.021820,127.401276 360.529053,129.513580 362.694977,131.344620 
z"/>
<path fill="#CD5D6A" opacity="1.000000" stroke="none" 
	d="
M138.074493,177.000015 
	C138.065460,170.003754 137.982529,163.506470 138.071030,157.011520 
	C138.138962,152.024902 140.100342,150.030823 145.099640,150.022644 
	C175.248993,149.973282 205.398514,149.973923 235.547882,150.010315 
	C240.538239,150.016327 241.795609,151.685593 241.798676,157.955215 
	C241.810074,181.275269 241.791992,204.595322 241.788162,227.915375 
	C241.787750,230.413910 241.685059,232.920364 241.845322,235.409271 
	C242.140930,239.999756 239.900818,241.693481 235.538116,241.594345 
	C229.544449,241.458145 223.545731,241.537674 217.549164,241.537949 
	C193.895966,241.539047 170.242752,241.552246 146.589554,241.545670 
	C138.821533,241.543518 138.047836,240.711151 138.057632,232.968384 
	C138.081039,214.478943 138.070953,195.989471 138.074493,177.000015 
z"/>
<path fill="#D06673" opacity="1.000000" stroke="none" 
	d="
M25.978992,571.036316 
	C23.262329,570.467407 23.770855,568.424805 23.770529,566.675049 
	C23.757690,497.933197 23.767960,429.191345 23.765274,360.449493 
	C23.765175,357.912750 23.933016,355.446472 25.821209,353.007019 
	C56.691067,352.661682 87.377190,352.682373 118.531097,352.675842 
	C120.894547,355.176941 121.246254,358.061707 121.244850,361.139893 
	C121.213623,429.538269 121.226585,497.936646 121.218948,566.335022 
	C121.218765,567.961121 121.600121,569.705078 119.784668,571.184387 
	C117.683220,570.233032 117.312424,568.675842 117.322998,566.656433 
	C117.669113,500.512848 117.429497,434.368561 117.481216,368.224518 
	C117.483025,365.910309 117.824783,363.559540 116.781586,360.920288 
	C114.773849,359.250397 112.765984,359.387299 110.763954,359.393585 
	C85.163177,359.473938 59.562355,359.491302 33.961617,359.383881 
	C32.292328,359.376862 30.630016,359.305542 28.734756,360.416748 
	C26.941128,362.821228 27.537643,365.218231 27.538179,367.495667 
	C27.553833,433.889618 27.347618,500.283691 27.640125,566.677429 
	C27.646772,568.186523 27.771732,569.684021 25.978992,571.036316 
z"/>
<path fill="#C33D4C" opacity="1.000000" stroke="none" 
	d="
M131.212372,669.992615 
	C130.899979,669.547424 130.941910,669.346863 130.995178,668.839233 
	C193.119156,668.550110 255.231796,668.581543 317.344421,668.583008 
	C427.249146,668.585632 537.153870,668.569946 647.526611,668.545898 
	C648.001709,668.735046 648.008789,668.940369 648.078918,669.446899 
	C646.285156,671.260803 644.060364,670.984009 641.913879,670.984131 
	C473.591644,670.992432 305.269379,670.992249 136.947144,670.984924 
	C135.126053,670.984863 133.264221,671.173157 131.212372,669.992615 
z"/>
<path fill="#F1D4D7" opacity="1.000000" stroke="none" 
	d="
M240.309174,572.931885 
	C241.674759,571.125305 241.951523,568.906433 241.950287,566.485229 
	C241.915298,497.890961 241.925751,429.296661 241.901535,360.702393 
	C241.899017,353.588898 241.042679,352.851562 233.672577,352.852631 
	C206.035080,352.856628 178.397568,352.865692 150.760086,352.847992 
	C148.435333,352.846497 146.110703,352.660095 143.331543,352.399414 
	C144.564941,350.751984 146.638535,351.111572 148.602905,351.110260 
	C176.906387,351.091187 205.209900,351.077759 233.513367,351.108704 
	C242.640411,351.118683 244.026703,352.522827 244.027313,361.404846 
	C244.032013,429.499725 244.041290,497.594635 243.990311,565.689514 
	C243.988220,568.467041 245.098434,572.024658 240.309174,572.931885 
z"/>
<path fill="#F1D4D7" opacity="1.000000" stroke="none" 
	d="
M139.669785,352.708435 
	C138.520447,355.160065 137.955719,357.661377 137.957016,360.420898 
	C137.989349,429.170624 137.977020,497.920319 137.965179,566.670044 
	C137.964874,568.516235 137.975754,570.342957 139.251984,572.317505 
	C137.403793,572.751526 136.340958,571.670105 136.114410,569.748840 
	C135.978622,568.597412 135.979660,567.425537 135.979584,566.262878 
	C135.975632,497.411743 135.963455,428.560577 136.033554,359.709503 
	C136.036316,356.993591 134.926193,353.366547 139.669785,352.708435 
z"/>
<path fill="#F1D4D7" opacity="1.000000" stroke="none" 
	d="
M575.830444,21.647562 
	C544.040894,21.968962 512.080750,21.929855 480.120544,21.916887 
	C442.333038,21.901554 404.545502,21.927233 366.758057,21.874987 
	C363.341095,21.870262 360.090454,21.990999 357.186157,24.789322 
	C356.189392,21.492111 358.675629,20.689295 361.150757,20.168585 
	C362.754150,19.831264 364.467834,19.976124 366.132080,19.975946 
	C433.776276,19.968769 501.420441,19.962097 569.064636,20.002937 
	C571.299133,20.004286 573.789490,19.227482 575.830444,21.647562 
z"/>
<path fill="#C33D4C" opacity="1.000000" stroke="none" 
	d="
M15.473539,336.450806 
	C14.995667,336.264893 14.985765,336.064148 14.903513,335.571106 
	C16.681719,333.766876 18.900755,334.020782 21.048485,334.020050 
	C50.686852,334.010132 80.325233,334.004272 109.963570,334.034363 
	C111.901917,334.036316 114.015785,333.538635 115.808502,335.580444 
	C114.095520,336.754028 112.073555,336.395660 110.102837,336.397583 
	C78.715744,336.428345 47.328625,336.428680 15.473539,336.450806 
z"/>
<path fill="#F1D4D7" opacity="1.000000" stroke="none" 
	d="
M358.977966,133.545685 
	C359.450287,133.438919 360.010864,133.543259 360.778412,133.856781 
	C360.235016,134.649796 359.595490,134.545609 358.977966,133.545685 
z"/>
<path fill="#C33D4C" opacity="1.000000" stroke="none" 
	d="
M265.448669,131.790680 
	C266.183655,129.802704 268.108612,130.021332 269.915649,130.020065 
	C290.196442,130.005768 310.477234,130.008759 330.758026,130.015823 
	C332.416077,130.016388 334.102722,129.941010 335.893250,131.290070 
	C330.614227,132.564697 324.948914,131.993652 319.309540,132.008850 
	C301.508881,132.056808 283.707825,131.947845 265.448669,131.790680 
z"/>
<path fill="#C33D4C" opacity="1.000000" stroke="none" 
	d="
M119.884140,330.547729 
	C117.826447,329.882690 118.020271,327.965302 118.018860,326.162994 
	C118.004234,307.465332 118.002876,288.767670 118.020012,270.070007 
	C118.021500,268.442413 117.786743,266.715363 119.490616,265.208618 
	C119.919540,279.074280 120.082298,293.150421 120.148438,307.227020 
	C120.184242,314.847992 120.055229,322.469666 119.884140,330.547729 
z"/>
<path fill="#FBF2F3" opacity="1.000000" stroke="none" 
	d="
M593.802002,369.000000 
	C593.810364,440.483612 593.818665,511.467255 593.828369,582.450867 
	C593.829224,588.503357 593.013367,589.347290 586.872559,589.346985 
	C507.724152,589.342957 428.575714,589.333801 349.427307,589.312622 
	C340.732849,589.310303 340.765381,589.271912 340.766388,580.749268 
	C340.775482,502.100708 340.776215,423.452148 340.767670,344.803589 
	C340.766754,336.426361 340.732086,336.406830 349.380646,336.406342 
	C426.529541,336.402130 503.678436,336.405548 580.827332,336.405579 
	C583.326721,336.405579 585.829773,336.476990 588.324768,336.368896 
	C592.322632,336.195587 594.015747,337.842682 593.908813,342.008087 
	C593.682373,350.833832 593.816162,359.668823 593.802002,369.000000 
z"/>
<path fill="#BF3040" opacity="1.000000" stroke="none" 
	d="
M335.984070,164.200562 
	C336.530365,158.856812 334.576233,156.873138 329.472412,156.926941 
	C310.145111,157.130630 290.814331,156.986267 271.484955,157.022812 
	C265.613281,157.033920 265.025360,157.658875 265.020264,163.767181 
	C264.996307,192.428070 265.020630,221.089005 264.981628,249.749878 
	C264.979004,251.679138 265.508575,253.726593 264.089752,255.898972 
	C262.404541,254.111084 263.031403,252.054367 263.028473,250.262802 
	C262.981293,221.435318 263.000366,192.607758 262.991638,163.780197 
	C262.988953,154.905609 262.972809,155.048767 271.560486,154.966690 
	C292.711456,154.764572 313.871185,155.620270 335.012177,154.487274 
	C337.313507,154.363922 338.382660,154.840530 338.369476,157.405365 
	C338.205688,189.226410 338.121735,221.047852 337.984344,252.869049 
	C337.978973,254.113144 338.406464,255.536255 335.984802,257.509613 
	C335.984802,225.915741 335.984802,195.293930 335.984070,164.200562 
z"/>
<path fill="#BF3040" opacity="1.000000" stroke="none" 
	d="
M338.010986,409.000000 
	C338.010986,468.511230 338.010986,527.522461 338.010986,586.533752 
	C337.532990,586.533264 337.055023,586.532837 336.577026,586.532349 
	C336.577026,503.871552 336.577026,421.210724 336.577026,338.555023 
	C336.769653,338.522278 336.928650,338.460266 337.076508,338.480255 
	C337.217743,338.499329 337.461975,338.597778 337.465942,338.671722 
	C338.705902,361.939270 337.668518,385.224884 338.010986,409.000000 
z"/>
<path fill="#BE2C3D" opacity="1.000000" stroke="none" 
	d="
M365.000061,331.982056 
	C440.844299,331.982025 516.188599,331.982025 591.532837,331.982025 
	C591.532166,332.454559 591.531494,332.927094 591.530762,333.399628 
	C508.842773,333.399628 426.154724,333.399628 343.466705,333.399628 
	C343.454651,332.927124 343.442566,332.454620 343.430481,331.982117 
	C350.453674,331.982117 357.476868,331.982117 365.000061,331.982056 
z"/>
<path fill="#BE2C3D" opacity="1.000000" stroke="none" 
	d="
M153.055466,334.009766 
	C149.902603,333.980286 147.237198,334.000824 144.577225,333.890625 
	C143.788803,333.857941 142.753845,333.550873 143.126221,332.424469 
	C143.262054,332.013611 144.160767,331.611389 144.704620,331.620331 
	C147.362564,331.663940 150.018127,331.962433 152.674698,331.964600 
	C185.312775,331.991394 217.950897,331.973541 250.588974,332.003387 
	C252.543930,332.005188 254.576859,331.579346 256.447113,332.538330 
	C256.451111,333.028809 256.455109,333.519287 256.459076,334.009766 
	C222.154388,334.009766 187.849701,334.009766 153.055466,334.009766 
z"/>
<path fill="#C33C4B" opacity="1.000000" stroke="none" 
	d="
M236.696823,131.438171 
	C234.445633,132.786987 232.250381,132.392639 230.110413,132.394104 
	C196.647552,132.416855 163.184692,132.400558 129.721817,132.406601 
	C121.215088,132.408142 120.595657,133.011734 120.591965,141.430649 
	C120.579262,170.398514 120.594856,199.366364 120.580444,228.334229 
	C120.579369,230.492966 120.426216,232.651642 120.143341,235.219147 
	C116.176941,236.048828 117.097427,233.104706 117.063477,231.263580 
	C116.916023,223.267456 117.001366,215.267548 117.000626,207.269012 
	C116.998741,186.939392 117.000000,166.609756 117.000107,146.280136 
	C116.999084,174.269043 117.007301,202.257950 116.994736,230.246857 
	C116.991730,236.934235 116.504295,237.475662 109.998085,237.484482 
	C84.836052,237.518570 59.673927,237.522491 34.511909,237.481445 
	C28.382925,237.471436 27.521225,236.625977 27.518394,230.569580 
	C27.487864,165.248169 27.490509,99.926765 27.516102,34.605358 
	C27.518541,28.375113 28.327194,27.521982 34.327297,27.519709 
	C100.148582,27.494774 165.969879,27.482157 231.791168,27.517141 
	C232.624176,27.517584 233.454956,27.563351 234.738312,27.820858 
	C237.574112,29.184917 237.477554,31.442274 237.479874,33.604725 
	C237.511917,63.418343 237.528030,93.232025 237.469498,123.045570 
	C237.459183,128.298431 236.693222,128.980469 231.230423,128.985626 
	C198.939987,129.016052 166.649490,128.997330 134.359024,129.000244 
	C166.504471,129.000595 198.649963,128.979248 230.795273,129.045486 
	C232.927612,129.049881 235.631287,127.961441 236.696823,131.438171 
z"/>
<path fill="#C03243" opacity="1.000000" stroke="none" 
	d="
M235.209137,28.570772 
	C169.004196,29.011026 103.015549,29.006046 37.026901,29.008736 
	C29.257154,29.009052 29.013807,29.237221 29.012949,36.724815 
	C29.005632,100.547173 29.005884,164.369522 29.012539,228.191879 
	C29.013327,235.753052 29.252613,235.982651 36.946484,235.985519 
	C60.942352,235.994476 84.938240,236.000916 108.934097,235.979843 
	C115.544502,235.974045 115.979256,235.528961 115.983261,228.811035 
	C116.000656,199.649384 115.981026,170.487732 116.015076,141.326126 
	C116.017357,139.375885 115.547302,137.331818 116.817741,135.131302 
	C118.681778,136.814484 117.962891,138.904816 117.966240,140.665802 
	C118.021362,169.660706 117.996155,198.655777 118.023201,227.650757 
	C118.025497,230.109238 117.548378,232.694427 119.608841,235.250351 
	C120.645828,238.106461 119.899841,239.687454 116.746101,239.976501 
	C114.981438,238.968338 113.469429,239.007919 111.968796,239.007401 
	C85.490997,238.998245 59.013199,238.989319 32.535404,239.013596 
	C31.536758,239.014511 30.533766,239.027344 29.161236,239.662476 
	C25.801098,240.387573 24.709183,238.895020 24.886021,235.746033 
	C26.346790,233.540039 25.985420,231.478821 25.985945,229.510956 
	C26.003260,164.568344 26.002722,99.625740 25.988379,34.683136 
	C25.988014,33.033329 26.222172,31.341566 25.159340,29.381460 
	C24.770391,28.549137 24.691856,28.099073 24.724518,27.319843 
	C26.095697,25.849058 27.429573,25.037807 29.269518,25.068527 
	C87.602577,26.042454 145.940506,25.205379 204.275406,25.530109 
	C214.156982,25.585119 224.046997,25.070778 234.343903,26.115894 
	C235.257919,26.848886 235.477859,27.437645 235.209137,28.570772 
z"/>
<path fill="#C33C4B" opacity="1.000000" stroke="none" 
	d="
M235.331726,27.091303 
	C169.170807,26.993427 103.345184,26.965746 37.519764,27.069168 
	C33.544697,27.075411 29.599604,25.674707 25.226980,26.924915 
	C24.801788,24.255913 26.641558,23.706356 28.819267,23.646538 
	C30.650673,23.596231 32.485008,23.660723 34.318047,23.660591 
	C100.811012,23.655870 167.303970,23.644285 233.796936,23.664839 
	C236.169266,23.665573 238.998993,22.830519 240.090240,26.574806 
	C238.664871,28.567751 237.174911,28.079485 235.331726,27.091303 
z"/>
<path fill="#BF3040" opacity="1.000000" stroke="none" 
	d="
M234.996765,27.328712 
	C236.435989,25.877390 237.917679,26.528732 239.727631,26.940859 
	C240.134247,27.444765 240.205612,27.894806 240.165588,28.672684 
	C238.801163,30.379591 239.011795,32.094494 239.010925,33.738388 
	C238.994965,63.656780 238.996048,93.575180 239.009048,123.493576 
	C239.009628,124.815941 238.898666,126.161789 239.740280,127.826599 
	C240.406769,130.392838 239.602875,131.707748 236.939972,131.944397 
	C234.436554,129.601364 231.668472,130.015915 229.037476,130.014755 
	C195.748001,130.000092 162.458496,130.016403 129.169083,129.974304 
	C127.267685,129.971893 125.216820,130.564651 123.077728,128.984756 
	C124.972008,127.493980 126.994209,128.020172 128.811234,128.018097 
	C162.100662,127.980423 195.390167,127.997841 228.679642,127.983307 
	C235.605637,127.980286 235.983398,127.593552 235.986877,120.583641 
	C236.000870,92.454033 235.994797,64.324417 235.988846,36.194801 
	C235.988388,34.036461 236.133331,31.856264 235.146301,29.399216 
	C234.994278,28.564356 234.995728,28.115002 234.996765,27.328712 
z"/>
<path fill="#C33C4B" opacity="1.000000" stroke="none" 
	d="
M24.701342,29.449617 
	C27.245247,30.000710 26.979172,32.145676 26.979551,34.115883 
	C26.992102,99.237251 26.991491,164.358627 26.983482,229.479996 
	C26.983257,231.300476 27.124819,233.179474 25.383446,234.992081 
	C24.816599,233.839966 24.426025,232.376831 24.425415,230.913528 
	C24.397760,164.571716 24.403852,98.229904 24.412874,31.888084 
	C24.412964,31.225395 24.504766,30.562717 24.701342,29.449617 
z"/>
<path fill="#C33C4B" opacity="1.000000" stroke="none" 
	d="
M240.162643,127.840027 
	C237.859207,126.789742 238.012207,124.550598 238.011627,122.388580 
	C238.003845,93.077454 237.999786,63.766323 238.021454,34.455212 
	C238.022766,32.670162 237.659912,30.727148 239.713776,29.185486 
	C240.197571,29.644291 240.466934,30.288191 240.466278,30.931810 
	C240.433289,63.103268 240.377197,95.274704 240.162643,127.840027 
z"/>
<path fill="#C33C4B" opacity="1.000000" stroke="none" 
	d="
M29.133175,240.058807 
	C30.255857,237.873413 32.479603,238.014587 34.639774,238.014069 
	C59.908226,238.007996 85.176674,238.007187 110.445129,238.017578 
	C112.262383,238.018326 114.135262,237.875412 115.975601,239.552460 
	C115.651566,240.050690 115.009796,240.342087 114.368286,240.341507 
	C86.089272,240.316040 57.810265,240.264801 29.133175,240.058807 
z"/>
<path fill="#C23949" opacity="1.000000" stroke="none" 
	d="
M365.000000,49.001709 
	C365.003143,44.170712 365.110321,39.836102 364.981354,35.508533 
	C364.841187,30.805162 367.053528,28.748774 371.653046,29.000834 
	C372.649475,29.055439 373.651733,29.001972 374.651306,29.001966 
	C436.958557,29.001638 499.265808,29.001646 561.573059,29.002163 
	C562.572632,29.002171 563.575134,29.060892 564.571228,29.003557 
	C569.206970,28.736729 571.099426,30.759005 571.065125,35.527935 
	C570.912720,56.684631 571.001709,77.843063 571.002258,99.000870 
	C571.002441,106.497726 570.824341,114.000145 571.061768,121.489433 
	C571.213745,126.283997 569.171265,128.062286 564.551392,128.023804 
	C551.391174,127.914177 538.229370,127.993736 525.068237,127.994034 
	C474.755981,127.995171 424.443726,127.997002 374.131470,127.991867 
	C365.581421,127.990997 365.005890,127.421616 365.002899,118.972031 
	C364.994690,95.815086 365.000031,72.658142 365.000000,49.001709 
z"/>
<path fill="#C64655" opacity="1.000000" stroke="none" 
	d="
M362.955933,131.254639 
	C358.827118,131.245941 359.974915,127.943596 359.969788,125.526237 
	C359.910553,97.700439 359.937347,69.874474 359.939484,42.048546 
	C359.939789,38.216244 359.910461,34.383816 359.934204,30.551687 
	C359.945404,28.743700 359.666962,26.828217 361.699493,25.290638 
	C362.031464,58.398346 362.022980,91.695969 362.008484,124.993591 
	C362.007599,126.999054 362.033722,128.994080 362.955933,131.254639 
z"/>
<path fill="#C64655" opacity="1.000000" stroke="none" 
	d="
M572.217041,25.059772 
	C573.109863,24.079966 574.045959,24.384937 574.941772,25.703880 
	C574.198486,25.733582 573.340149,25.501820 572.217041,25.059772 
z"/>
<path fill="#C03243" opacity="1.000000" stroke="none" 
	d="
M567.869934,239.003876 
	C501.409912,239.002914 435.433289,239.003143 369.456665,239.002411 
	C361.903809,239.002319 361.905670,238.999786 361.905762,231.657623 
	C361.906036,207.832733 362.008667,184.007004 361.816528,160.183655 
	C361.778107,155.415237 363.264130,153.839218 368.091492,153.848129 
	C435.067535,153.971878 502.043976,153.971100 569.019958,153.841934 
	C573.638916,153.833023 575.081116,155.261871 575.047852,159.839890 
	C574.872375,183.996735 574.967102,208.155502 574.963745,232.313614 
	C574.962830,238.946808 574.955994,238.946808 567.869934,239.003876 
z"/>
<path fill="#BF3040" opacity="1.000000" stroke="none" 
	d="
M118.541779,357.775360 
	C118.998505,405.977020 119.014900,453.942688 119.074394,501.908295 
	C119.102699,524.724304 119.213097,547.540161 119.343796,570.850281 
	C118.107307,571.553528 116.813560,571.943481 115.519356,571.945068 
	C86.637688,571.979736 57.755970,571.973694 28.874264,571.960815 
	C28.051085,571.960449 27.227972,571.801331 25.999750,571.532349 
	C25.705355,567.686890 25.910931,564.025452 25.912647,560.363892 
	C25.944147,493.224243 25.951221,426.084625 25.998928,358.478088 
	C29.780376,356.376312 31.442095,358.181610 31.568020,361.691772 
	C31.663097,364.342102 31.457874,367.017426 31.457508,369.682617 
	C31.449121,430.826080 31.448378,491.969574 31.457457,553.113037 
	C31.459173,564.673523 32.342220,565.538574 44.025902,565.543762 
	C63.685104,565.552490 83.344360,565.574951 103.003502,565.532593 
	C112.005920,565.513245 113.532478,564.031677 113.527748,555.082153 
	C113.493797,490.940460 113.702400,426.798553 113.405136,362.657196 
	C113.389534,359.292419 114.132675,357.025665 118.541779,357.775360 
z"/>
<path fill="#C13747" opacity="1.000000" stroke="none" 
	d="
M238.691711,356.696472 
	C239.944687,359.364532 239.872894,361.872681 239.873032,364.372192 
	C239.876770,431.370758 239.836319,498.369385 239.974350,565.367676 
	C239.983963,570.036987 238.535416,571.362427 233.962631,571.335083 
	C204.964294,571.161682 175.964417,571.227173 146.965118,571.270081 
	C143.526886,571.275146 140.816635,571.273071 140.825729,566.443970 
	C140.955963,497.279633 140.955200,428.115021 141.038300,358.485535 
	C142.246613,356.706421 143.553101,356.235992 145.435822,356.264282 
	C173.679199,356.688568 201.924927,356.469971 230.170135,356.473694 
	C232.868362,356.474060 235.573746,355.496704 238.691711,356.696472 
z"/>
<path fill="#C64655" opacity="1.000000" stroke="none" 
	d="
M238.938782,356.590393 
	C221.351013,359.102417 203.518097,357.652527 185.720200,357.930359 
	C171.087067,358.158783 156.446472,357.908875 141.449921,357.945770 
	C141.463470,355.064362 143.667099,354.932190 145.913498,354.931549 
	C175.505615,354.923126 205.097748,354.922455 234.689865,354.926086 
	C236.178314,354.926270 237.727173,354.795532 238.938782,356.590393 
z"/>
<path fill="#C03243" opacity="1.000000" stroke="none" 
	d="
M239.014526,220.998718 
	C239.016312,225.828934 238.925613,230.162231 239.050751,234.489304 
	C239.141327,237.620895 237.952789,239.040054 234.691620,239.033966 
	C205.210083,238.978836 175.728378,238.980377 146.246811,239.026489 
	C142.982376,239.031601 141.894730,237.549011 141.901810,234.442230 
	C141.959518,209.124786 141.969116,183.807068 141.900391,158.489685 
	C141.890778,154.946991 143.511353,153.891235 146.792587,153.897568 
	C175.941025,153.953888 205.089813,153.983398 234.237915,153.870132 
	C238.542526,153.853424 239.071136,156.065491 239.057510,159.537369 
	C238.977814,179.857697 239.016052,200.178497 239.014526,220.998718 
z"/>
<path fill="#C23949" opacity="1.000000" stroke="none" 
	d="
M118.776047,357.707458 
	C116.540237,358.120361 115.640831,359.122467 115.648117,361.793976 
	C115.829887,428.419891 115.870865,495.046173 116.060280,561.672058 
	C116.073929,566.472351 114.290398,568.082642 109.584114,568.055115 
	C84.764931,567.910034 59.944126,567.920776 35.124729,568.045654 
	C30.610691,568.068359 28.943777,566.404053 28.949621,561.880615 
	C29.034166,496.415802 29.034952,430.950806 28.908678,365.486145 
	C28.903940,363.030243 31.718395,359.256012 26.387180,358.046997 
	C26.846661,356.445923 28.152260,356.279175 29.804262,356.327911 
	C58.360485,357.170135 86.918556,357.230804 115.474602,356.303589 
	C116.716042,356.263275 117.783318,356.371094 118.776047,357.707458 
z"/>
<path fill="#D57580" opacity="1.000000" stroke="none" 
	d="
M398.000000,572.918335 
	C386.336487,572.920715 375.172577,572.978882 364.009583,572.903748 
	C357.812958,572.862061 357.046509,571.996521 357.046936,566.019409 
	C357.051910,498.205170 357.055115,430.390900 357.059875,362.576660 
	C357.060547,353.139343 357.742554,352.454590 367.362213,352.453491 
	C434.843262,352.445801 502.324310,352.445282 569.805359,352.443909 
	C576.317627,352.443756 577.004333,353.012268 577.007751,359.541351 
	C577.044495,428.855194 577.007690,498.169067 577.121948,567.482727 
	C577.130432,572.626892 574.431885,572.983582 570.451660,572.978760 
	C513.134460,572.909668 455.817230,572.924072 398.000000,572.918335 
z"/>
<path fill="#C23949" opacity="1.000000" stroke="none" 
	d="
M517.000000,157.001831 
	C532.826050,157.002563 548.152100,156.977982 563.478088,157.015625 
	C570.258240,157.032272 570.988281,157.773163 570.994324,164.432144 
	C571.013428,185.588715 571.008240,206.745331 570.998291,227.901917 
	C570.994934,235.025726 570.151245,235.961746 562.976013,235.971695 
	C531.491089,236.015335 500.006012,235.993561 468.520996,235.994354 
	C437.535736,235.995117 406.550507,235.997360 375.565247,235.992874 
	C365.325623,235.991409 365.000824,235.653275 365.000275,225.234863 
	C364.999298,206.243912 364.999664,187.252960 365.000092,168.262009 
	C365.000366,157.159470 365.149750,157.003159 376.066925,157.002686 
	C422.877960,157.000687 469.688965,157.001831 517.000000,157.001831 
z"/>
<path fill="#C23949" opacity="1.000000" stroke="none" 
	d="
M176.000000,567.000000 
	C168.173019,566.999023 160.845795,567.035461 153.519150,566.985168 
	C147.513977,566.943970 147.009415,566.386292 147.007614,559.784729 
	C146.994705,512.325928 147.000092,464.867096 147.000122,417.408264 
	C147.000122,401.255615 147.128174,385.101349 146.922119,368.951324 
	C146.863098,364.324829 148.538940,362.900360 153.045609,362.928101 
	C178.022995,363.082062 203.002319,363.084045 227.979660,362.926788 
	C232.517227,362.898254 234.079758,364.385956 234.071899,368.975677 
	C233.962769,432.753479 234.005157,496.531525 233.987274,560.309509 
	C233.985550,566.477478 233.429245,566.980469 226.956100,566.990173 
	C210.137436,567.015442 193.318710,566.999512 176.000000,567.000000 
z"/>
<path fill="#C23949" opacity="1.000000" stroke="none" 
	d="
M153.218826,157.002533 
	C178.486526,157.002335 203.283173,156.988907 228.079803,157.011353 
	C235.440826,157.018021 235.988586,157.599045 235.992218,165.023270 
	C236.002640,186.325089 236.009201,207.626907 235.986893,228.928696 
	C235.979965,235.542801 235.534363,235.981018 228.839783,235.985977 
	C203.543900,236.004669 178.247955,236.006607 152.952072,235.985092 
	C145.887161,235.979080 145.015961,235.071472 145.009399,227.805313 
	C144.990463,206.836349 144.987381,185.867355 145.011810,164.898407 
	C145.019836,157.998230 145.802017,157.248962 153.218826,157.002533 
z"/>
<path fill="#C23949" opacity="1.000000" stroke="none" 
	d="
M362.126099,566.261414 
	C361.721619,535.951904 361.669250,505.983276 361.654053,476.014679 
	C361.635803,440.050232 361.663574,404.085815 361.640472,368.121368 
	C361.633118,356.695007 361.587860,356.699402 373.209167,356.699982 
	C438.810913,356.703247 504.412659,356.704254 570.478027,356.748199 
	C573.267761,358.775574 573.376404,361.528442 573.425598,364.247375 
	C573.570496,372.264496 573.498535,380.283234 573.497681,388.301331 
	C573.491455,446.350128 573.515808,504.398895 573.491760,562.447693 
	C573.489502,567.928650 572.895813,569.394836 566.695801,569.424988 
	C501.200317,569.743652 435.704346,569.233154 370.209381,569.608093 
	C367.283478,569.624878 364.362793,569.405884 362.126099,566.261414 
z"/>
<path fill="#BF3040" opacity="1.000000" stroke="none" 
	d="
M361.718933,566.361328 
	C367.751862,568.627258 374.124146,567.980713 380.411896,567.982117 
	C441.534760,567.995667 502.657654,567.992188 563.780518,567.987915 
	C571.830994,567.987366 571.986572,567.839050 571.987244,559.975708 
	C571.992493,496.354614 572.007324,432.733521 571.947144,369.112488 
	C571.943542,365.307220 571.320740,361.502563 570.963806,357.243988 
	C573.673523,356.431366 575.047974,357.629486 575.066101,360.384918 
	C575.074890,361.717712 575.094177,363.050476 575.094238,364.383270 
	C575.096924,431.199982 575.057251,498.016754 575.187439,564.833191 
	C575.196472,569.471863 574.152954,571.198669 569.129150,571.186768 
	C502.146210,571.027832 435.162750,571.087402 368.179474,571.049255 
	C365.222260,571.047546 361.281097,572.127319 361.718933,566.361328 
z"/>
</svg>