<?xml version="1.0" encoding="UTF-8"?>
<svg version="1.1" viewBox="0 0 1363.9486 761.42889" xmlns="http://www.w3.org/2000/svg">
 <defs>
  <filter id="a" color-interpolation-filters="sRGB">
   <feGaussianBlur stdDeviation="4.40461"/>
  </filter>
  <filter id="b" color-interpolation-filters="sRGB">
   <feGaussianBlur stdDeviation="2.97557"/>
  </filter>
  <filter id="j" color-interpolation-filters="sRGB">
   <feGaussianBlur stdDeviation="1.09488"/>
  </filter>
  <filter id="d" color-interpolation-filters="sRGB">
   <feGaussianBlur stdDeviation="16.97417"/>
  </filter>
  <filter id="i" color-interpolation-filters="sRGB">
   <feGaussianBlur stdDeviation="4.68691"/>
  </filter>
  <filter id="k" color-interpolation-filters="sRGB">
   <feGaussianBlur stdDeviation="5.78362"/>
  </filter>
  <filter id="c" x="-.04066" y="-.11444" width="1.0813" height="1.2289" color-interpolation-filters="sRGB">
   <feGaussianBlur stdDeviation="10.60059"/>
  </filter>
  <linearGradient id="h" x2="0" y1="1638.4" y2="1526.4" gradientUnits="userSpaceOnUse">
   <stop stop-color="#713c01" offset="0"/>
   <stop stop-color="#a86a0a" offset="1"/>
  </linearGradient>
  <linearGradient id="g" x1="13.539" x2="-243.87" y1="2366.1" y2="2660.6" gradientUnits="userSpaceOnUse">
   <stop stop-color="#008080" offset="0"/>
   <stop stop-color="#8be6e6" offset="1"/>
  </linearGradient>
  <linearGradient id="f" x1="3715.2" x2="4601.5" y1="2863.7" y2="1064.8" gradientTransform="matrix(.2373 -.20599 .20083 .23136 -778.49 2474.2)" gradientUnits="userSpaceOnUse">
   <stop stop-color="#2e3436" offset="0"/>
   <stop stop-color="#555753" offset="1"/>
  </linearGradient>
  <linearGradient id="e" x1="842.97" x2="781.24" y1="5114" y2="4886.5" gradientUnits="userSpaceOnUse">
   <stop stop-color="#555753" offset="0"/>
   <stop stop-color="#888a85" offset="1"/>
  </linearGradient>
 </defs>
 <g transform="translate(-317.01 -121.25)">
  <path d="m696.85 162.44c-78.759 0.01-157.84 27.296-221.94 82.938-141.47 122.8-156.45 337.23-33.438 478.94s337.41 157.05 478.88 34.25 156.42-337.23 33.406-478.94c-67.271-77.499-161.85-117.2-256.91-117.19zm0.0625 35.594c85.091-0.0193 169.78 35.501 230 104.87 110.11 126.86 96.729 318.8-29.906 428.72-126.63 109.92-318.57 96.199-428.69-30.656-109.25-125.86-96.921-315.8 26.969-426.13 0.97504-0.86939 1.9794-1.7037 2.9688-2.5625 57.381-49.809 128.15-74.234 198.66-74.25z" fill="#2e3436" fill-opacity=".99608" fill-rule="evenodd" filter="url(#d)" opacity=".78" stroke="#2e3436" stroke-width=".89238"/>
  <g transform="translate(-1488.6 -3422.1)" fill="#1a1a1a" filter="url(#c)" opacity=".78">
   <path d="m2641.6 3805.2c-84.361 46.095-109.93 65.964-108.45 82.076 1.4829 16.111 37.239 24.348 133.24 50.927 95.998 26.579 490.45 45.984 474.44-115.22-16.005-161.2-414.87-63.877-499.23-17.783z" stroke="#2e3436"/>
   <path d="m2546.7 3870.8c-10.455 9.292-14.302 16.478-13.699 23.023 0.7274 7.9046 9.7367 13.896 30.031 21.106-0.3855-15.946 25.788-35.901 108.47-81.078 67.506-36.885 336.4-106.58 449.35-50.351-84.189-93.377-404.78-12.543-479.4 28.224-50.09 27.369-79.473 45.495-94.754 59.076z" filter="url(#a)" opacity=".5307"/>
   <path transform="rotate(-7.0254)" d="m2033.4 4122.3h53.886a7.6504 7.6504 0 0 1 7.6504 7.6504v71.182a7.6504 7.6504 0 0 1 -7.6504 7.6504h-53.886a7.6504 7.6504 0 0 1 -7.6504 -7.6504v-71.182a7.6504 7.6504 0 0 1 7.6504 -7.6504" stroke="#2e3436" stroke-linejoin="round"/>
   <path transform="matrix(-.09172 -.6838 .74424 -.08427 -499.23 5676.1)" d="m2078.6 4317.7h53.886a7.6504 7.6504 0 0 1 7.6504 7.6504v71.182a7.6504 7.6504 0 0 1 -7.6504 7.6504h-53.886a7.6504 7.6504 0 0 1 -7.6504 -7.6504v-71.182a7.6504 7.6504 0 0 1 7.6504 -7.6504" filter="url(#b)" opacity=".531"/>
  </g>
  <g transform="translate(-2522.9 -1180.5)">
   <g transform="translate(1036.5 -2241.9)" fill="#1a1a1a" filter="url(#c)" opacity=".78">
    <path d="m2641.6 3805.2c-84.361 46.095-109.93 65.964-108.45 82.076 1.4829 16.111 37.239 24.348 133.24 50.927 95.998 26.579 490.45 45.984 474.44-115.22-16.005-161.2-414.87-63.877-499.23-17.783z" stroke="#2e3436"/>
    <path d="m2546.7 3870.8c-10.455 9.292-14.302 16.478-13.699 23.023 0.7274 7.9046 9.7367 13.896 30.031 21.106-0.3855-15.946 25.788-35.901 108.47-81.078 67.506-36.885 336.4-106.58 449.35-50.351-84.189-93.377-404.78-12.543-479.4 28.224-50.09 27.369-79.473 45.495-94.754 59.076z" filter="url(#a)" opacity=".5307"/>
   </g>
   <path d="m3665.8 1559.3c-84.361 46.095-109.93 65.964-108.45 82.076 1.4829 16.111 37.239 24.348 133.24 50.927 95.998 26.579 490.45 45.984 474.44-115.22-16.005-161.2-414.87-63.877-499.23-17.783z" fill="#8f5902" stroke="#2e3436"/>
   <path d="m3570.8 1624.9c-10.455 9.292-14.302 16.478-13.699 23.023 0.7274 7.9046 9.7367 13.896 30.031 21.106-0.3855-15.946 25.788-35.901 108.47-81.078 67.506-36.885 336.4-106.58 449.35-50.351-84.189-93.377-404.78-12.543-479.4 28.224-50.09 27.369-79.473 45.495-94.754 59.076z" fill="#c17d11" filter="url(#a)" opacity=".5307"/>
   <path transform="matrix(.97082 -.23982 -.23982 -.97082 887.15 3125.8)" d="m2972.9 772.33c-10.455 9.292-14.302 16.478-13.699 23.023 0.7274 7.9046 9.7367 13.896 30.031 21.106-0.3855-15.946 25.788-35.901 108.47-81.078 67.506-36.885 336.4-106.58 449.35-50.351-84.189-93.377-404.78-12.543-479.4 28.224-50.09 27.369-79.473 45.495-94.754 59.076z" fill="#520" filter="url(#a)" opacity=".5307"/>
   <path d="m4102.2 1507.6c-2.8807 0-2.8911 12.498-5.6463 13.043 25.059 4.9757 57.875 30.718 57.875 62.826s-26.216 58.272-51.275 63.248c2.7556 0.5452 4.6468 10.252 7.5279 10.252 29.097 0 52.656-37.379 52.656-73.03s-32.041-76.34-61.138-76.34z" fill="url(#h)" fill-rule="evenodd" filter="url(#j)" opacity=".5"/>
   <path d="m3665.8 1559.3c-84.361 46.095-109.93 65.964-108.45 82.076 1.4829 16.111 37.239 24.348 133.24 50.927 95.998 26.579 490.45 45.984 474.44-115.22-16.005-161.2-414.87-63.877-499.23-17.783z" fill="none" stroke="#2e3436"/>
  </g>
  <path transform="rotate(-7.0254)" d="m962.75 538.3h53.886a7.6504 7.6504 0 0 1 7.6505 7.6504v71.182a7.6504 7.6504 0 0 1 -7.6505 7.6504h-53.886a7.6504 7.6504 0 0 1 -7.6504 -7.6504v-71.182a7.6504 7.6504 0 0 1 7.6504 -7.6504" fill="#555753" stroke="#2e3436" stroke-linejoin="round" stroke-width="2"/>
  <path transform="matrix(-.09172 -.6838 .74424 -.08427 -2000.2 2250)" d="m2078.6 4317.7h53.886a7.6504 7.6504 0 0 1 7.6504 7.6504v71.182a7.6504 7.6504 0 0 1 -7.6504 7.6504h-53.886a7.6504 7.6504 0 0 1 -7.6504 -7.6504v-71.182a7.6504 7.6504 0 0 1 7.6504 -7.6504" fill="#eeeeec" filter="url(#b)" opacity=".531"/>
  <path transform="rotate(-7.0254)" d="m962.75 538.3h53.886a7.6504 7.6504 0 0 1 7.6505 7.6504v71.182a7.6504 7.6504 0 0 1 -7.6505 7.6504h-53.886a7.6504 7.6504 0 0 1 -7.6504 -7.6504v-71.182a7.6504 7.6504 0 0 1 7.6504 -7.6504" fill="none" stroke="#2e3436" stroke-linejoin="round" stroke-width="4"/>
  <g transform="translate(80.454 -1569.7)" fill-rule="evenodd">
   <path transform="matrix(1.5458 0 0 1.5458 782.97 -1823)" d="m88.436 2519.4c0 108.08-87.613 195.69-195.69 195.69s-195.69-87.613-195.69-195.69 87.613-195.69 195.69-195.69 195.69 87.613 195.69 195.69z" fill="url(#g)" opacity=".78"/>
   <path d="m610.6 1770.5c-124.15 0-231.23 71.893-280.65 175.68 46.638-27.676 101.3-43.624 159.72-43.624 171.09 0 309.8 136.54 309.8 304.95 0 46.209-10.495 90.018-29.182 129.26 89.935-53.367 150.11-150.46 150.11-261.36 0-168.41-138.71-304.91-309.8-304.91z" fill="#f9f9f9" filter="url(#k)" opacity=".41"/>
   <g transform="matrix(.97053 0 0 .97053 -265.95 -621.36)" fill="#1a1a1a" fill-opacity=".99608">
    <path d="m907.92 2469.1c-70.468 0.01-141.24 24.502-198.59 74.469-86.213 75.11-119.9 188.39-97.844 293.22-2.3139-15.212-3.5-30.796-3.5-46.656 0-169.64 137.28-307.16 306.63-307.16 109.62 0 205.79 57.624 260 144.28-10.188-18.526-22.464-36.28-36.844-52.906-60.189-69.595-144.8-105.26-229.84-105.25z" filter="url(#i)"/>
    <path d="m907.92 2463.8c-70.468 0.01-141.24 24.502-198.59 74.469-86.213 75.11-119.9 188.39-97.844 293.22-2.3139-15.212-3.5-30.796-3.5-46.656 0-169.64 137.28-307.16 306.63-307.16 109.62 0 205.79 57.624 260 144.28-10.188-18.526-22.464-36.28-36.844-52.906-60.189-69.595-144.8-105.26-229.84-105.25z"/>
   </g>
   <path d="m616.4 1732.1c-78.759 0.01-157.84 27.296-221.94 82.938-141.47 122.8-156.45 337.23-33.438 478.94s337.41 157.05 478.88 34.25 156.42-337.23 33.406-478.94c-67.271-77.498-161.85-117.2-256.91-117.19zm0.0625 35.594c85.091-0.019 169.78 35.501 230 104.87 110.11 126.86 96.729 318.8-29.906 428.72-126.63 109.92-318.57 96.199-428.69-30.656-109.25-125.86-96.921-315.8 26.969-426.12 0.97504-0.8694 1.9794-1.7038 2.9688-2.5625 57.381-49.809 128.15-74.234 198.66-74.25z" fill="#2e3436" fill-opacity=".99608" filter="url(#d)" opacity=".78" stroke="#2e3436" stroke-width=".89238"/>
   <path d="m616.8 1767.4c-70.679 0.012-141.65 24.487-199.17 74.418-126.95 110.19-140.36 302.6-29.978 429.76 110.38 127.17 302.79 140.92 429.73 30.73 126.95-110.19 140.36-302.6 29.978-429.76-60.366-69.544-145.26-105.16-230.56-105.15zm0.72162 9.1106c162.94 0 295.03 132.32 295.03 295.54s-132.09 295.57-295.03 295.57-295.03-132.35-295.03-295.57 132.09-295.54 295.03-295.54z" fill="url(#f)"/>
   <g transform="matrix(.98458 0 0 .98458 -227.62 -2936)" stroke="#2e3436">
    <path d="m631.81 4825.4c-143.68 124.72-158.88 342.5-33.944 486.43s342.69 159.5 486.37 34.783 158.86-342.48 33.922-486.42c-124.97-143.9-342.71-159.5-486.39-34.8zm20.694 29.932c0.9903-0.883 2.0112-1.7458 3.016-2.618 128.62-111.64 323.54-97.722 435.37 31.12 111.84 128.84 98.236 323.8-30.382 435.45-128.62 111.64-323.55 97.701-435.39-31.141-110.96-127.84-98.445-320.75 27.384-432.81z" fill="#2e3436" fill-opacity=".99608" stroke-width=".90635"/>
    <path d="m631.27 4831.6c-138.83 123.63-152.64 336.48-30.214 477.53 123.39 142.15 338.47 157.54 480.38 34.359s156.91-338.28 33.521-480.44c-123.39-142.15-338.45-157.51-480.36-34.335-1.1087 0.9623-2.2346 1.9145-3.3275 2.8883zm19.019 15.189c131.94-114.52 331.89-100.24 446.61 31.929s100.78 332.17-31.159 446.69-331.91 100.21-446.63-31.952c-114.72-132.17-100.76-332.14 31.179-446.67z" fill="url(#e)"/>
   </g>
  </g>
 </g>
</svg>
