<?xml version="1.0" standalone="no"?>
<!DOCTYPE svg PUBLIC "-//W3C//DTD SVG 20010904//EN"
 "http://www.w3.org/TR/2001/REC-SVG-20010904/DTD/svg10.dtd">
<svg version="1.0" xmlns="http://www.w3.org/2000/svg"
 width="360.000000pt" height="360.000000pt" viewBox="0 0 360.000000 360.000000"
 preserveAspectRatio="xMidYMid meet">

<g transform="translate(0.000000,360.000000) scale(0.100000,-0.100000)"
fill="#000000" stroke="none">
<path d="M917 1794 l-148 -75 21 -27 c11 -15 32 -43 47 -62 20 -26 59 -51 151
-95 164 -79 169 -83 96 -77 -43 3 -83 17 -149 49 -49 25 -84 39 -77 32 8 -9
12 -51 12 -136 l0 -123 140 -70 c78 -39 145 -68 150 -65 6 4 10 69 10 149 l0
144 88 7 c61 5 101 14 135 31 26 14 52 22 58 19 5 -4 8 -1 7 7 -2 7 35 33 87
61 50 27 81 45 70 41 -11 -4 -40 -7 -65 -7 -37 0 -39 0 -11 -4 33 -4 30 -7
-80 -65 -105 -56 -120 -61 -189 -64 l-75 -4 135 67 c117 59 141 75 180 122 25
30 46 58 48 63 2 4 -64 41 -145 82 l-149 74 -47 -59 c-26 -32 -51 -59 -55 -59
-4 0 -22 23 -41 50 -19 28 -39 54 -45 59 -7 6 -67 -19 -159 -65z"/>
<path d="M750 1596 c0 -2 7 -7 16 -10 8 -3 12 -2 9 4 -6 10 -25 14 -25 6z"/>
</g>
</svg>
